<svg width="32" height="32" viewBox="0 0 32 32" fill="none" xmlns="http://www.w3.org/2000/svg">
    <g clip-path="url(#clip0_7_14)">
        <path d="M16.8666 13.3333C15.7733 10.2267 12.8133 8 9.33331 8C4.91998 8 1.33331 11.5867 1.33331 16C1.33331 20.4133 4.91998 24 9.33331 24C12.8133 24 15.7733 21.7733 16.8666 18.6667H22.6666V24H28V18.6667H30.6666V13.3333H16.8666ZM9.33331 18.6667C7.86665 18.6667 6.66665 17.4667 6.66665 16C6.66665 14.5333 7.86665 13.3333 9.33331 13.3333C10.8 13.3333 12 14.5333 12 16C12 17.4667 10.8 18.6667 9.33331 18.6667Z" fill="#EDEDED"/>
    </g>
    <defs>
        <clipPath id="clip0_7_14">
            <rect width="32" height="32" fill="white"/>
        </clipPath>
    </defs>
</svg>