<svg width="1000" height="1000" viewBox="0 0 1000 1000" fill="none" xmlns="http://www.w3.org/2000/svg">
<g clip-path="url(#clip0_13_4)">
<path d="M319.678 690.192C285.203 690.192 255.507 682.683 230.59 667.664C206.014 652.304 187.07 630.459 173.758 602.128C160.446 573.797 153.79 540.005 153.79 500.752C153.79 461.499 160.446 427.707 173.758 399.376C187.07 370.704 206.014 348.688 230.59 333.328C255.507 317.968 285.203 310.288 319.678 310.288C354.494 310.288 384.19 317.968 408.766 333.328C433.683 348.688 452.798 370.704 466.11 399.376C479.422 427.707 486.078 461.499 486.078 500.752C486.078 540.005 479.422 573.797 466.11 602.128C452.798 630.459 433.683 652.304 408.766 667.664C384.19 682.683 354.494 690.192 319.678 690.192ZM319.678 647.184C357.225 647.184 386.579 634.384 407.742 608.784C429.246 582.843 439.998 546.832 439.998 500.752C439.998 454.672 429.246 418.661 407.742 392.72C386.579 366.437 357.225 353.296 319.678 353.296C282.473 353.296 253.118 366.437 231.614 392.72C210.451 418.661 199.87 454.672 199.87 500.752C199.87 546.832 210.451 582.843 231.614 608.784C253.118 634.384 282.473 647.184 319.678 647.184ZM695.618 690.192C663.191 690.192 634.69 682.683 610.114 667.664C585.538 652.304 566.423 630.459 552.77 602.128C539.117 573.797 532.29 540.005 532.29 500.752C532.29 461.499 539.117 427.707 552.77 399.376C566.423 370.704 585.538 348.688 610.114 333.328C634.69 317.968 663.191 310.288 695.618 310.288C739.65 310.288 773.783 321.381 798.018 343.568C822.253 365.755 838.125 395.963 845.634 434.192L799.042 437.264C793.922 411.323 782.999 390.843 766.274 375.824C749.549 360.805 725.997 353.296 695.618 353.296C672.407 353.296 651.927 359.269 634.178 371.216C616.77 382.821 603.117 399.717 593.218 421.904C583.319 443.749 578.37 470.032 578.37 500.752C578.37 531.472 583.319 557.755 593.218 579.6C603.117 601.445 616.77 618.171 634.178 629.776C651.927 641.381 672.407 647.184 695.618 647.184C727.362 647.184 751.938 638.992 769.346 622.608C786.754 605.883 797.677 583.355 802.114 555.024L848.706 558.096C844.269 584.379 835.565 607.419 822.594 627.216C809.623 647.013 792.386 662.544 770.882 673.808C749.719 684.731 724.631 690.192 695.618 690.192Z" fill="#EDEDED"/>
</g>
<defs>
<clipPath id="clip0_13_4">
<rect width="1000" height="1000" fill="white"/>
</clipPath>
</defs>
</svg>
